<svg width="500" height="500" viewBox="0 0 500 500" fill="none" xmlns="http://www.w3.org/2000/svg">
<rect width="500" height="500" rx="128" fill="#EDA4B2"/>
<path d="M247.512 151.8C249.147 151.4 250.854 151.4 252.489 151.8L252.838 151.892L252.839 151.893L408.967 195.899L409.031 195.917L409.093 195.937C410.915 196.515 412.237 197.37 413.156 198.188C413.61 198.593 413.954 198.978 414.206 199.301C414.332 199.462 414.434 199.607 414.515 199.729C414.517 199.731 414.518 199.735 414.52 199.737C415.741 201.364 424.497 213.038 433.179 224.615C437.864 230.862 442.548 237.109 446.061 241.793C447.817 244.135 449.281 246.087 450.305 247.453L451.808 249.457C451.843 249.504 451.87 249.54 451.888 249.563C451.897 249.575 451.904 249.585 451.909 249.591C451.911 249.594 451.912 249.596 451.914 249.598L451.915 249.6C451.91 249.603 451.805 249.682 449.431 251.463L451.916 249.6L451.917 249.604L452.101 249.856C453.956 252.496 454.494 255.854 453.532 258.951L453.531 258.952C452.569 262.046 450.227 264.513 447.201 265.641L446.905 265.746L416.581 276.019V362.658C416.581 366.755 414.185 370.457 410.481 372.15L410.119 372.308L254.031 436.691C254.014 436.699 253.996 436.707 253.977 436.715C253.902 436.747 253.807 436.785 253.697 436.827C253.477 436.911 253.184 437.012 252.833 437.109C252.14 437.302 251.156 437.5 250 437.5C249.005 437.5 248.165 437.394 247.416 437.201C246.7 437.017 246.124 436.755 246.012 436.709L89.8833 372.308C85.9751 370.696 83.4204 366.889 83.4204 362.658V276.02L53.0962 265.747C49.9281 264.674 47.4623 262.149 46.4692 258.953V258.952C45.477 255.755 46.081 252.279 48.0854 249.603L48.0864 249.601L50.9438 251.743C48.2182 249.699 48.0929 249.604 48.0874 249.6L48.0884 249.598C48.0895 249.596 48.0911 249.594 48.0932 249.591C48.0977 249.585 48.1041 249.576 48.1128 249.564C48.1305 249.541 48.1579 249.506 48.1929 249.459C48.2627 249.366 48.3663 249.227 48.5014 249.047C48.7718 248.686 49.1685 248.158 49.6733 247.484C50.6835 246.137 52.1268 244.211 53.8608 241.898C57.3288 237.273 61.9587 231.1 66.604 224.904C71.2494 218.709 75.9108 212.491 79.4429 207.779C81.2087 205.424 82.6924 203.445 83.7505 202.033C84.2795 201.327 84.7023 200.763 85.0005 200.365C85.1494 200.166 85.2667 200.009 85.3511 199.896C85.3932 199.84 85.4269 199.795 85.4516 199.762C85.464 199.745 85.4744 199.732 85.4819 199.722L85.4936 199.706V199.705H85.4946L85.7075 199.43C86.787 198.084 88.0806 197.238 89.0122 196.741C89.5278 196.467 89.9874 196.271 90.3306 196.139C90.5032 196.072 90.6503 196.021 90.7651 195.982C90.8227 195.963 90.8733 195.947 90.9145 195.935C90.9349 195.928 90.9531 195.923 90.9692 195.918C90.9772 195.916 90.9848 195.913 90.9917 195.911C90.9952 195.91 90.9992 195.909 91.0024 195.908C91.004 195.908 91.0058 195.907 91.0073 195.906H91.0093C91.0117 195.911 91.0493 196.036 92.0268 199.43L91.0112 195.905L91.0229 195.902L91.0337 195.899L247.162 151.893L247.163 151.892L247.512 151.8ZM211.878 312.346L211.879 312.347C209.854 314.842 206.849 316.209 203.765 316.209C202.651 316.209 201.513 316.034 200.401 315.654V315.653L104.323 283.101V355.673L239.55 411.451V278.304L211.878 312.346ZM260.451 411.451L395.678 355.673V283.103L299.599 315.655L299.6 315.656C298.488 316.035 297.352 316.211 296.237 316.211C293.151 316.211 290.147 314.84 288.124 312.35V312.349L260.451 278.304V411.451ZM268.197 254.706L299.767 293.548L426.545 250.595L402.035 217.901L268.197 254.706ZM73.4565 250.595L200.234 293.546L231.803 254.705L174.303 238.893L107.253 220.456L97.9663 217.901L73.4565 250.595ZM132.797 205.823L250 238.055L367.203 205.823L250 172.787L132.797 205.823Z" fill="white" stroke="white" stroke-width="8"/>
<path d="M178 225.469L181.17 80.5734L256.057 70L309.548 117.385L325 161.245L321.434 238L181.17 228.601L178 225.469Z" fill="white"/>
<path d="M260.938 58C263.97 58 266.879 59.2004 269.024 61.3379L331.649 123.737L332.041 124.147C333.94 126.238 335 128.964 335 131.8V223.32C335 228.957 335.009 233.87 334.677 237.909L334.678 237.91C334.357 241.824 333.667 245.791 331.855 249.649L331.478 250.42C328.477 256.29 323.744 261.096 317.923 264.196L317.357 264.491C313.5 266.449 309.524 267.237 305.59 267.609L304.804 267.679C300.75 268.009 295.82 268 290.163 268H210.838C205.534 268 200.869 268.008 196.966 267.736L196.196 267.679C192.269 267.359 188.289 266.672 184.417 264.867L183.645 264.491C177.755 261.501 172.931 256.785 169.819 250.984L169.523 250.42C167.558 246.576 166.765 242.613 166.392 238.693L166.323 237.91C165.991 233.871 166 228.958 166 223.32V102.68L166.004 98.5908C166.017 94.6415 166.074 91.1202 166.323 88.0898L166.392 87.3066C166.765 83.387 167.558 79.4236 169.523 75.5801L169.819 75.0156C172.931 69.2151 177.755 64.499 183.645 61.5088L184.417 61.1328C188.289 59.3276 192.269 58.641 196.196 58.3213L196.966 58.2637C200.869 57.9926 205.534 58 210.838 58H260.938ZM210.838 80.7998C205.558 80.7998 201.959 80.8065 199.195 80.9668L198.058 81.0459C195.629 81.2436 194.633 81.5556 194.187 81.75L194.027 81.8252C192.362 82.6706 190.99 83.988 190.08 85.6064L189.904 85.9336C189.748 86.2388 189.44 86.9665 189.213 88.9951L189.122 89.9473C188.884 92.8433 188.875 96.6665 188.875 102.68V223.32C188.875 229.334 188.884 233.156 189.122 236.053L189.213 237.005C189.44 239.032 189.747 239.76 189.904 240.066L190.08 240.394C190.99 242.012 192.362 243.329 194.027 244.175L194.188 244.25C194.635 244.445 195.631 244.757 198.058 244.955L199.195 245.033C201.959 245.193 205.558 245.2 210.838 245.2H290.163C296.198 245.2 300.035 245.191 302.943 244.955L303.898 244.863C305.934 244.638 306.666 244.331 306.974 244.175L307.303 243.999C308.929 243.091 310.249 241.724 311.097 240.066L311.173 239.907C311.368 239.463 311.681 238.47 311.879 236.053C312.116 233.156 312.125 229.333 312.125 223.32V143.2H277.638C275.245 143.2 272.85 143.207 270.739 143.082L269.852 143.021C267.557 142.834 264.811 142.404 262.007 141.098L261.446 140.824C257.459 138.8 254.192 135.608 252.085 131.681L251.885 131.298C250.549 128.684 250.016 126.098 249.77 123.857L249.68 122.919C249.491 120.613 249.5 117.885 249.5 115.16V80.7998H210.838ZM272.375 115.16C272.375 117.258 272.382 118.687 272.415 119.751L273.667 119.115L273.03 120.36C274.098 120.392 275.533 120.4 277.638 120.4H295.945L272.375 96.915V115.16Z" fill="#58C8F2" stroke="#58C8F2" stroke-width="2"/>
<path d="M250 250L90.5005 207.5L62 259.5L98 365.5L151.5 391L256 424.5L414.5 365.5L431 250L407 207.5L250 250Z" fill="#EDA4B2"/>
<path d="M410.052 192.049L410.179 192.085L410.303 192.124C412.689 192.882 414.501 194.029 415.817 195.202C416.465 195.779 416.971 196.343 417.357 196.838C417.516 197.041 417.652 197.232 417.77 197.404C419.314 199.461 427.916 210.931 436.379 222.216C441.064 228.463 445.748 234.709 449.261 239.394C451.017 241.735 452.48 243.688 453.505 245.054C454.017 245.736 454.42 246.273 454.694 246.639C454.831 246.821 454.937 246.962 455.008 247.057C455.043 247.104 455.07 247.14 455.088 247.164C455.097 247.176 455.104 247.185 455.108 247.191C455.11 247.194 455.112 247.197 455.113 247.198L455.114 247.199C455.107 247.205 454.897 247.363 449.04 251.756L455.115 247.2L455.119 247.206L455.373 247.557C457.938 251.206 458.682 255.851 457.351 260.138V260.14C456.02 264.419 452.78 267.83 448.596 269.389L448.189 269.534L420.58 278.887V362.658C420.58 368.51 417.047 373.777 411.643 376.006L411.642 376.005L255.59 440.374C255.573 440.381 255.556 440.39 255.538 440.397C255.419 440.448 255.277 440.505 255.116 440.566C254.796 440.688 254.387 440.829 253.904 440.963C252.96 441.226 251.606 441.5 250 441.5C248.714 441.5 247.535 441.362 246.418 441.074C245.374 440.805 244.491 440.41 244.482 440.405V440.404L88.3584 376.005V376.006C82.9562 373.778 79.42 368.513 79.42 362.658V278.889L51.8116 269.536C47.4321 268.052 44.0231 264.561 42.6494 260.141L42.6485 260.138C41.2756 255.713 42.1114 250.905 44.8828 247.204L44.8858 247.2L44.8877 247.198C44.8888 247.197 44.8905 247.194 44.8926 247.191C44.897 247.186 44.9035 247.177 44.9121 247.165C44.9298 247.141 44.9565 247.106 44.9912 247.06C45.0611 246.966 45.1657 246.828 45.3008 246.647C45.5712 246.287 45.9678 245.757 46.4727 245.084C47.4828 243.737 48.9264 241.811 50.6602 239.499C54.1281 234.874 58.7581 228.7 63.4034 222.505C68.0485 216.31 72.7094 210.092 76.2412 205.381C78.0072 203.025 79.4909 201.045 80.5489 199.634C81.0777 198.928 81.5 198.364 81.7979 197.967C81.9468 197.768 82.0646 197.611 82.1485 197.499C82.1902 197.443 82.2231 197.399 82.2471 197.367C82.27 197.337 82.2799 197.323 82.2813 197.321H82.2823L82.585 196.928C84.1198 195.014 85.9174 193.858 87.1309 193.211C87.3401 193.099 87.5427 192.998 87.7364 192.905L90.3164 193.51C90.6239 194.575 91.1602 196.423 92.085 199.634L90.3213 193.511L103.397 196.569L92.1182 199.749L92.0987 199.755C92.1121 199.751 92.1192 199.749 92.1192 199.749L103.397 196.569L171.5 212.5L184.634 215.93L250 233.905L301.959 219.616L349 207.5L368.147 201.934L382.115 205.871L250 242.203L382.116 205.871L368.147 201.934L406.04 190.918L410.052 192.049ZM399.678 358.351L256.451 417.428V417.429L399.679 358.351V277.524H399.678V358.351ZM108.322 352.996L235.55 405.474V289.566L214.984 314.866L214.985 314.867C212.183 318.32 208.025 320.209 203.765 320.209C202.235 320.209 200.665 319.968 199.124 319.444V319.445L108.322 288.68V352.996ZM300.877 319.447L300.876 319.446C299.336 319.969 297.767 320.211 296.236 320.211C291.972 320.211 287.817 318.316 285.019 314.872V314.871L264.45 289.566V405.474L391.678 352.996V288.681L300.877 319.447ZM87.4297 363.021C87.4368 363.143 87.4474 363.264 87.461 363.384C87.4474 363.264 87.4366 363.143 87.4297 363.021ZM295.88 312.201L296.236 312.211V312.21C296.001 312.21 295.767 312.196 295.534 312.171C295.649 312.184 295.764 312.195 295.88 312.201ZM296.497 312.205C296.412 312.208 296.326 312.21 296.241 312.21C296.413 312.21 296.586 312.204 296.758 312.19L296.497 312.205ZM297.798 312.021C297.626 312.063 297.453 312.099 297.279 312.127L297.539 312.08C297.712 312.045 297.884 312.001 298.055 311.951L297.798 312.021ZM201.691 311.868C201.77 311.895 201.849 311.919 201.928 311.942C201.849 311.919 201.771 311.895 201.692 311.868L100.323 277.522L201.691 311.868ZM433.058 252.613L298.417 298.229L433.059 252.613L403.602 213.323H403.601L433.058 252.613ZM275.166 256.938L301.116 288.866L420.034 248.578L400.468 222.481L275.166 256.938ZM79.9668 248.578L198.884 288.864L224.834 256.937L173.242 242.749L106.192 224.312L99.5323 222.48L79.9668 248.578ZM108.314 216.599L175.363 235.035L238.772 252.473L175.364 235.035L108.314 216.599L96.4004 213.323L108.314 216.599ZM51.2862 252C51.2463 252.053 51.21 252.109 51.1719 252.163C51.2101 252.109 51.2472 252.053 51.2871 252C51.3377 251.933 88.1899 202.784 88.7061 202.089C88.1856 202.79 51.2862 252 51.2862 252ZM91.7657 199.872C91.7602 199.874 91.7546 199.876 91.7491 199.878C91.7654 199.872 91.7815 199.866 91.7969 199.86L91.7657 199.872ZM417.693 197.304C417.686 197.294 417.68 197.283 417.673 197.273H417.671C417.678 197.283 417.686 197.293 417.693 197.304ZM87.42 362.658L87.4239 362.902C87.4254 362.942 87.4274 362.982 87.4297 363.021C87.4229 362.901 87.42 362.78 87.42 362.658Z" fill="white"/>
</svg>
