<svg width="300" height="300" viewBox="0 0 300 300" fill="none" xmlns="http://www.w3.org/2000/svg">
<circle cx="150" cy="150" r="150" fill="#D9D9D9"/>
<path d="M118 110C118 118.487 121.371 126.626 127.373 132.627C133.374 138.629 141.513 142 150 142C158.487 142 166.626 138.629 172.627 132.627C178.629 126.626 182 118.487 182 110C182 101.513 178.629 93.3737 172.627 87.3726C166.626 81.3714 158.487 78 150 78C141.513 78 133.374 81.3714 127.373 87.3726C121.371 93.3737 118 101.513 118 110Z" stroke="black" stroke-width="16" stroke-linecap="round" stroke-linejoin="round"/>
<path d="M102 222V206C102 197.513 105.371 189.374 111.373 183.373C117.374 177.371 125.513 174 134 174H166C174.487 174 182.626 177.371 188.627 183.373C194.629 189.374 198 197.513 198 206V222" stroke="black" stroke-width="16" stroke-linecap="round" stroke-linejoin="round"/>
</svg>
